<?xml version="1.0" standalone="no"?>
<!DOCTYPE svg PUBLIC "-//W3C//DTD SVG 20010904//EN"
 "http://www.w3.org/TR/2001/REC-SVG-20010904/DTD/svg10.dtd">
<svg version="1.0" xmlns="http://www.w3.org/2000/svg"
 width="512.000000pt" height="512.000000pt" viewBox="0 0 512.000000 512.000000"
 preserveAspectRatio="xMidYMid meet">
<metadata>
Created by potrace 1.10, written by Peter Selinger 2001-2011
</metadata>
<g transform="translate(0.000000,512.000000) scale(0.050000,-0.050000)"
fill="#000000" stroke="none">
<path d="M1790 10222 c-225 -56 -210 93 -210 -2017 0 -2063 -12 -1896 141
-1975 97 -50 2143 -44 2239 7 148 78 140 -39 140 1985 l0 1812 -46 68 c-88
131 -58 128 -1184 131 -561 2 -1047 -3 -1080 -11z m1490 -2012 l0 -1110 -440
0 -440 0 0 1110 0 1110 440 0 440 0 0 -1110z"/>
<path d="M5920 10218 c-61 -24 -811 -766 -851 -842 -74 -139 -30 -254 169
-441 185 -175 339 -200 453 -74 19 21 43 39 52 39 9 0 17 -423 17 -940 l0
-940 -255 0 c-393 0 -465 -64 -465 -410 0 -421 -31 -410 1130 -410 1160 0
1120 -15 1120 413 0 352 -63 407 -465 407 l-245 0 0 1495 c0 1667 7 1583 -138
1680 -75 49 -415 65 -522 23z"/>
<path d="M2568 5248 c-112 -55 -821 -788 -844 -872 -36 -131 -2 -207 162 -371
198 -198 338 -226 476 -93 81 77 79 102 73 -922 l-5 -920 -270 -10 c-401 -15
-440 -51 -440 -410 0 -424 -38 -410 1121 -410 1154 0 1119 -13 1119 406 0 365
-54 414 -457 414 l-263 0 0 1511 c0 1668 6 1589 -126 1670 -84 51 -448 56
-546 7z"/>
<path d="M5093 5260 c-70 -22 -128 -72 -165 -144 -49 -95 -41 -3643 9 -3735
77 -144 49 -141 1218 -141 1143 0 1139 0 1222 116 l43 60 0 1834 c0 2029 8
1900 -128 1982 -68 42 -2072 67 -2199 28z m1507 -2010 l0 -1111 -435 6 -435 5
-5 1105 -5 1105 440 0 440 0 0 -1110z"/>
</g>
</svg>
