<svg xmlns="http://www.w3.org/2000/svg" aria-hidden="true" style="width: 0; height: 0; position: absolute;"><symbol id="icon-Archetypal" viewBox="0 0 90 88"><path d="M8.696 70.734a2.5 2.5 0 0 0 4.079-2.891zM77.2 67.878a2.5 2.5 0 1 0 4.076 2.896zM26 55.534a2.5 2.5 0 0 0 0 5zm38 5a2.5 2.5 0 0 0 0-5zM26 45.5a2.5 2.5 0 0 0 0 5zM29.2 85a2.5 2.5 0 0 0 5 0zM64 50.5a2.5 2.5 0 0 0 0-5zM55.167 85a2.5 2.5 0 0 0 5 0zM33.789 41.5a2.5 2.5 0 0 0 0-5zM18 39v-2.5h-2.5V39zm-2.5 38a2.5 2.5 0 0 0 5 0zm40.08-40.5a2.5 2.5 0 0 0 0 5zM72 39h2.5v-2.5H72zm-2.5 38a2.5 2.5 0 0 0 5 0zm-56.725-9.157a39.5 39.5 0 0 1-7.18-20.094l-4.987.348a44.5 44.5 0 0 0 8.088 22.637zm-7.18-20.094a39.5 39.5 0 0 1 4.32-20.897l-4.44-2.297A44.5 44.5 0 0 0 .608 48.097zm4.32-20.897a39.5 39.5 0 0 1 14.559-15.6L21.875 6.98a44.5 44.5 0 0 0-16.4 17.575zm14.559-15.6A39.5 39.5 0 0 1 45.022 5.5l.003-5a44.5 44.5 0 0 0-23.15 6.48zM45.022 5.5a39.5 39.5 0 0 1 20.542 5.775l2.603-4.27A44.5 44.5 0 0 0 45.025.5zm20.542 5.775a39.5 39.5 0 0 1 14.54 15.616l4.444-2.292A44.5 44.5 0 0 0 68.167 7.006zm14.54 15.616a39.5 39.5 0 0 1 4.297 20.901l4.988.354a44.5 44.5 0 0 0-4.84-23.547zm4.297 20.901A39.5 39.5 0 0 1 77.2 67.878l4.076 2.896a44.5 44.5 0 0 0 8.113-22.628zM52.5 27a7.5 7.5 0 0 1-7.5 7.5v5c6.904 0 12.5-5.596 12.5-12.5zM45 34.5a7.5 7.5 0 0 1-7.5-7.5h-5c0 6.904 5.596 12.5 12.5 12.5zM37.5 27a7.5 7.5 0 0 1 7.5-7.5v-5c-6.904 0-12.5 5.596-12.5 12.5zm7.5-7.5a7.5 7.5 0 0 1 7.5 7.5h5c0-6.904-5.596-12.5-12.5-12.5zm-9.424 5H7v5h28.576zm18.24 4H83v-5H53.816zM26 60.534h5.7v-5H26zm5.7 0h25.967v-5H31.7zm25.967 0H64v-5h-6.333zM26 50.5h5.7v-5H26zm3.2-2.5v10.034h5V48zm0 10.034V85h5V58.034zm2.5-7.534h25.967v-5H31.7zm25.967 0H64v-5h-6.333zm-2.5-2.5v10.034h5V48zm0 10.034V85h5V58.034zM33.789 36.5H18v5H33.79zM15.5 39v38h5V39zm40.08 2.5H72v-5H55.58zM69.5 39v38h5V39z"></path></symbol><symbol id="icon-binary" viewBox="0 0 512 512"><path d="M89.5.9C78.25 3.7 79-3.75 79 101.75c0 103.15-.6 94.8 7.05 98.75 4.85 2.5 107.15 2.2 111.95-.35 7.4-3.9 7 1.95 7-99.25V10.3l-2.3-3.4C198.3.35 199.8.5 143.5.35 115.45.25 91.15.5 89.5.9M164 101.5V157h-44V46h44zM296 1.1c-3.05 1.2-40.55 38.3-42.55 42.1-3.7 6.95-1.5 12.7 8.45 22.05 9.25 8.75 16.95 10 22.65 3.7.95-1.05 2.15-1.95 2.6-1.95s.85 21.15.85 47v47h-12.75c-19.65 0-23.25 3.2-23.25 20.5 0 21.05-1.55 20.5 56.5 20.5 58 0 56 .75 56-20.65 0-17.6-3.15-20.35-23.25-20.35H329V86.25c0-83.35.35-79.15-6.9-84C318.35-.2 301.35-1 296 1.1M128.4 249.6c-5.6 2.75-41.05 39.4-42.2 43.6-1.8 6.55-.1 10.35 8.1 18.55 9.9 9.9 16.9 11.3 23.8 4.65 4.05-3.85 3.95-5.1 3.65 46.1l-.25 46-13.5.5c-20.05.75-22 2.55-22 20.5 0 21.2-1.9 20.5 56.05 20.5 57.7 0 55.95.65 55.95-20.3 0-18.25-2.7-20.7-22.85-20.7H162v-75.55c0-83.4.3-79.45-6.3-83.5-4.2-2.55-22.4-2.8-27.3-.35M254.65 249c-3.5 1.1-6.4 3.6-8.25 7.2-2.45 4.75-2.05 182.15.45 186.75 3.85 7.2 2.45 7.05 60.9 7.05 57.15 0 56.95 0 61.1-5.8l2.15-3v-91.7c0-101.45.4-95-6.4-99.1-3.4-2.1-103.6-3.35-109.95-1.4M330 349.5v55.55l-21.75-.3-21.75-.25-.25-55.25L286 294h44z"></path></symbol><symbol id="icon-download" viewBox="0 0 24 24"><path d="M21 15v4a2 2 0 0 1-2 2H5a2 2 0 0 1-2-2v-4M7 10l5 5 5-5M12 15V3"></path></symbol><symbol id="icon-folder" viewBox="0 0 24 24"><path d="M22 19a2 2 0 0 1-2 2H4a2 2 0 0 1-2-2V5a2 2 0 0 1 2-2h5l2 3h9a2 2 0 0 1 2 2z"></path></symbol><symbol id="icon-home" viewBox="0 0 24 24"><path d="m3 9 9-7 9 7v11a2 2 0 0 1-2 2H5a2 2 0 0 1-2-2z"></path><path d="M9 22V12h6v10"></path></symbol><symbol id="icon-loader" viewBox="0 0 24 24"><path d="M12 2v4M12 18v4M4.93 4.93l2.83 2.83M16.24 16.24l2.83 2.83M2 12h4M18 12h4M4.93 19.07l2.83-2.83M16.24 7.76l2.83-2.83"></path></symbol><symbol id="icon-x" viewBox="0 0 24 24"><path d="M18 6 6 18M6 6l12 12"></path></symbol></svg>